<?xml version="1.0" standalone="no"?>
<!DOCTYPE svg PUBLIC "-//W3C//DTD SVG 20010904//EN"
 "http://www.w3.org/TR/2001/REC-SVG-20010904/DTD/svg10.dtd">
<svg version="1.0" xmlns="http://www.w3.org/2000/svg"
 width="175.000000pt" height="175.000000pt" viewBox="0 0 175.000000 175.000000"
 preserveAspectRatio="xMidYMid meet">

<g transform="translate(0.000000,175.000000) scale(0.100000,-0.100000)"
fill="#000000" stroke="none">
<path d="M794 1629 c-138 -13 -283 -73 -400 -167 -70 -56 -85 -89 -60 -126 24
-38 66 -35 113 8 151 134 368 194 557 152 95 -22 219 -82 283 -139 58 -52 78
-61 106 -45 56 29 51 73 -15 133 -152 137 -364 203 -584 184z"/>
<path d="M760 1115 c-183 -57 -231 -312 -83 -434 62 -51 113 -61 321 -61 l184
0 -45 63 -45 62 -155 5 c-137 4 -158 7 -177 25 -65 59 -65 141 0 200 19 18 40
21 177 25 l155 5 44 63 45 62 -188 -1 c-131 0 -202 -5 -233 -14z"/>
<path d="M835 915 c-14 -13 -25 -31 -25 -40 0 -9 11 -27 25 -40 23 -24 31 -25
133 -25 95 0 113 3 136 21 15 12 26 30 26 44 0 14 -11 32 -26 44 -23 18 -41
21 -136 21 -102 0 -110 -1 -133 -25z"/>
<path d="M334 415 c-25 -38 -11 -68 58 -123 144 -114 271 -161 453 -169 102
-5 134 -2 205 16 103 26 193 67 276 126 100 72 127 121 86 158 -31 29 -66 20
-124 -29 -69 -59 -136 -97 -223 -126 -59 -19 -90 -23 -195 -22 -114 0 -132 3
-205 31 -91 34 -141 63 -209 122 -57 49 -97 54 -122 16z"/>
</g>
</svg>
